<?xml version="1.0" standalone="no"?>
<!DOCTYPE svg PUBLIC "-//W3C//DTD SVG 20010904//EN"
 "http://www.w3.org/TR/2001/REC-SVG-20010904/DTD/svg10.dtd">
<svg version="1.0" xmlns="http://www.w3.org/2000/svg"
 width="500.000000pt" height="500.000000pt" viewBox="0 0 500.000000 500.000000"
 preserveAspectRatio="xMidYMid meet">

<g transform="translate(0.000000,500.000000) scale(0.100000,-0.100000)"
fill="#000000" stroke="none">
<path d="M2344 4086 c-3 -8 -3 -20 1 -26 4 -6 2 -16 -3 -23 -6 -7 -11 -16 -12
-22 0 -5 -10 -10 -21 -9 -12 0 -18 -4 -15 -12 21 -55 27 -139 17 -231 -12
-116 -53 -343 -82 -461 -11 -45 -18 -91 -14 -102 12 -38 -106 -371 -176 -495
-16 -28 -29 -57 -29 -63 0 -12 -63 -155 -80 -182 -5 -8 -28 -46 -51 -83 -111
-185 -320 -477 -341 -477 -4 0 -8 -5 -8 -11 0 -43 -246 -298 -662 -684 -71
-67 -152 -184 -136 -200 9 -10 155 33 218 65 30 15 88 40 129 55 98 37 329
184 416 265 38 36 108 99 155 140 149 132 225 211 354 372 106 133 220 292
301 422 l18 30 18 -22 c9 -12 43 -70 75 -130 31 -59 78 -138 104 -177 120
-181 270 -398 328 -475 111 -148 344 -425 383 -455 21 -15 54 -52 75 -82 60
-88 117 -106 294 -93 74 5 136 15 174 29 33 11 79 21 103 21 33 0 43 4 43 16
0 14 7 15 53 8 131 -21 404 9 457 51 8 7 24 15 35 19 16 6 2 15 -65 40 -96 38
-283 126 -350 167 -25 15 -70 34 -100 43 -72 22 -358 176 -456 246 -42 30
-112 84 -154 120 -42 36 -132 108 -200 160 -68 52 -166 133 -219 180 -53 47
-123 108 -156 135 -33 28 -92 80 -132 116 -39 37 -108 92 -152 123 -44 31 -83
61 -86 66 -3 5 22 67 56 137 79 165 137 332 200 567 27 104 52 193 55 197 14
24 44 214 44 283 0 144 -14 173 -148 309 -116 116 -134 128 -215 142 -28 4
-39 2 -43 -9z"/>
</g>
</svg>
